<svg id="visual" viewBox="0 0 1920 1080" width="1920" height="1080" xmlns="http://www.w3.org/2000/svg" xmlns:xlink="http://www.w3.org/1999/xlink" version="1.1"><path d="M0 98L29.2 105.2C58.3 112.3 116.7 126.7 174.8 135.7C233 144.7 291 148.3 349.2 143C407.3 137.7 465.7 123.3 523.8 109C582 94.7 640 80.3 698.2 75C756.3 69.7 814.7 73.3 872.8 85.8C931 98.3 989 119.7 1047.2 132.2C1105.3 144.7 1163.7 148.3 1221.8 144.8C1280 141.3 1338 130.7 1396.2 123.5C1454.3 116.3 1512.7 112.7 1570.8 101.8C1629 91 1687 73 1745.2 71.2C1803.3 69.3 1861.7 83.7 1890.8 90.8L1920 98L1920 0L1890.8 0C1861.7 0 1803.3 0 1745.2 0C1687 0 1629 0 1570.8 0C1512.7 0 1454.3 0 1396.2 0C1338 0 1280 0 1221.8 0C1163.7 0 1105.3 0 1047.2 0C989 0 931 0 872.8 0C814.7 0 756.3 0 698.2 0C640 0 582 0 523.8 0C465.7 0 407.3 0 349.2 0C291 0 233 0 174.8 0C116.7 0 58.3 0 29.2 0L0 0Z" fill="#23a0ff"></path><path d="M0 239L29.2 249.7C58.3 260.3 116.7 281.7 174.8 278C233 274.3 291 245.7 349.2 226C407.3 206.3 465.7 195.7 523.8 193.8C582 192 640 199 698.2 191.7C756.3 184.3 814.7 162.7 872.8 166.3C931 170 989 199 1047.2 220.7C1105.3 242.3 1163.7 256.7 1221.8 265.7C1280 274.7 1338 278.3 1396.2 276.5C1454.3 274.7 1512.7 267.3 1570.8 249.3C1629 231.3 1687 202.7 1745.2 188.3C1803.3 174 1861.7 174 1890.8 174L1920 174L1920 96L1890.8 88.8C1861.7 81.7 1803.3 67.3 1745.2 69.2C1687 71 1629 89 1570.8 99.8C1512.7 110.7 1454.3 114.3 1396.2 121.5C1338 128.7 1280 139.3 1221.8 142.8C1163.7 146.3 1105.3 142.7 1047.2 130.2C989 117.7 931 96.3 872.8 83.8C814.7 71.3 756.3 67.7 698.2 73C640 78.3 582 92.7 523.8 107C465.7 121.3 407.3 135.7 349.2 141C291 146.3 233 142.7 174.8 133.7C116.7 124.7 58.3 110.3 29.2 103.2L0 96Z" fill="#6fc4f8"></path><path d="M0 476L29.2 479.7C58.3 483.3 116.7 490.7 174.8 470.8C233 451 291 404 349.2 395C407.3 386 465.7 415 523.8 422.3C582 429.7 640 415.3 698.2 399.2C756.3 383 814.7 365 872.8 363.2C931 361.3 989 375.7 1047.2 413.3C1105.3 451 1163.7 512 1221.8 539C1280 566 1338 559 1396.2 566.3C1454.3 573.7 1512.7 595.3 1570.8 588.2C1629 581 1687 545 1745.2 514.3C1803.3 483.7 1861.7 458.3 1890.8 445.7L1920 433L1920 172L1890.8 172C1861.7 172 1803.3 172 1745.2 186.3C1687 200.7 1629 229.3 1570.8 247.3C1512.7 265.3 1454.3 272.7 1396.2 274.5C1338 276.3 1280 272.7 1221.8 263.7C1163.7 254.7 1105.3 240.3 1047.2 218.7C989 197 931 168 872.8 164.3C814.7 160.7 756.3 182.3 698.2 189.7C640 197 582 190 523.8 191.8C465.7 193.7 407.3 204.3 349.2 224C291 243.7 233 272.3 174.8 276C116.7 279.7 58.3 258.3 29.2 247.7L0 237Z" fill="#bde3f2"></path><path d="M0 627L29.2 632.5C58.3 638 116.7 649 174.8 641.8C233 634.7 291 609.3 349.2 591.3C407.3 573.3 465.7 562.7 523.8 550.2C582 537.7 640 523.3 698.2 519.7C756.3 516 814.7 523 872.8 541C931 559 989 588 1047.2 624C1105.3 660 1163.7 703 1221.8 712C1280 721 1338 696 1396.2 703.2C1454.3 710.3 1512.7 749.7 1570.8 767.7C1629 785.7 1687 782.3 1745.2 762.7C1803.3 743 1861.7 707 1890.8 689L1920 671L1920 431L1890.8 443.7C1861.7 456.3 1803.3 481.7 1745.2 512.3C1687 543 1629 579 1570.8 586.2C1512.7 593.3 1454.3 571.7 1396.2 564.3C1338 557 1280 564 1221.8 537C1163.7 510 1105.3 449 1047.2 411.3C989 373.7 931 359.3 872.8 361.2C814.7 363 756.3 381 698.2 397.2C640 413.3 582 427.7 523.8 420.3C465.7 413 407.3 384 349.2 393C291 402 233 449 174.8 468.8C116.7 488.7 58.3 481.3 29.2 477.7L0 474Z" fill="#bde3f2"></path><path d="M0 811L29.2 814.7C58.3 818.3 116.7 825.7 174.8 807.7C233 789.7 291 746.3 349.2 726.5C407.3 706.7 465.7 710.3 523.8 688.7C582 667 640 620 698.2 623.5C756.3 627 814.7 681 872.8 700.8C931 720.7 989 706.3 1047.2 722.7C1105.3 739 1163.7 786 1221.8 807.7C1280 829.3 1338 825.7 1396.2 841.8C1454.3 858 1512.7 894 1570.8 906.5C1629 919 1687 908 1745.2 877.3C1803.3 846.7 1861.7 796.3 1890.8 771.2L1920 746L1920 669L1890.8 687C1861.7 705 1803.3 741 1745.2 760.7C1687 780.3 1629 783.7 1570.8 765.7C1512.7 747.7 1454.3 708.3 1396.2 701.2C1338 694 1280 719 1221.8 710C1163.7 701 1105.3 658 1047.2 622C989 586 931 557 872.8 539C814.7 521 756.3 514 698.2 517.7C640 521.3 582 535.7 523.8 548.2C465.7 560.7 407.3 571.3 349.2 589.3C291 607.3 233 632.7 174.8 639.8C116.7 647 58.3 636 29.2 630.5L0 625Z" fill="#6fc4f8"></path><path d="M0 1081L29.2 1081C58.3 1081 116.7 1081 174.8 1081C233 1081 291 1081 349.2 1081C407.3 1081 465.7 1081 523.8 1081C582 1081 640 1081 698.2 1081C756.3 1081 814.7 1081 872.8 1081C931 1081 989 1081 1047.2 1081C1105.3 1081 1163.7 1081 1221.8 1081C1280 1081 1338 1081 1396.2 1081C1454.3 1081 1512.7 1081 1570.8 1081C1629 1081 1687 1081 1745.2 1081C1803.3 1081 1861.7 1081 1890.8 1081L1920 1081L1920 744L1890.8 769.2C1861.7 794.3 1803.3 844.7 1745.2 875.3C1687 906 1629 917 1570.8 904.5C1512.7 892 1454.3 856 1396.2 839.8C1338 823.7 1280 827.3 1221.8 805.7C1163.7 784 1105.3 737 1047.2 720.7C989 704.3 931 718.7 872.8 698.8C814.7 679 756.3 625 698.2 621.5C640 618 582 665 523.8 686.7C465.7 708.3 407.3 704.7 349.2 724.5C291 744.3 233 787.7 174.8 805.7C116.7 823.7 58.3 816.3 29.2 812.7L0 809Z" fill="#23a0ff"></path></svg>