<svg id="visual" viewBox="0 0 960 540" width="960" height="540" xmlns="http://www.w3.org/2000/svg" xmlns:xlink="http://www.w3.org/1999/xlink" version="1.1"><rect x="0" y="0" width="960" height="540" fill="#002233"></rect><path d="M0 449L16 448.2C32 447.3 64 445.7 96 440.7C128 435.7 160 427.3 192 419.3C224 411.3 256 403.7 288 399.2C320 394.7 352 393.3 384 397.5C416 401.7 448 411.3 480 411.2C512 411 544 401 576 404.5C608 408 640 425 672 430.5C704 436 736 430 768 428.5C800 427 832 430 864 428.7C896 427.3 928 421.7 944 418.8L960 416L960 541L944 541C928 541 896 541 864 541C832 541 800 541 768 541C736 541 704 541 672 541C640 541 608 541 576 541C544 541 512 541 480 541C448 541 416 541 384 541C352 541 320 541 288 541C256 541 224 541 192 541C160 541 128 541 96 541C64 541 32 541 16 541L0 541Z" fill="#0066FF" stroke-linecap="round" stroke-linejoin="miter"></path></svg>