<svg id="visual" viewBox="0 0 960 540" width="960" height="540" xmlns="http://www.w3.org/2000/svg" xmlns:xlink="http://www.w3.org/1999/xlink" version="1.1"><rect x="0" y="0" width="960" height="540" fill="#ffffff"></rect><path d="M0 454L22.8 442.5C45.7 431 91.3 408 137 406.2C182.7 404.3 228.3 423.7 274 428C319.7 432.3 365.3 421.7 411.2 417.7C457 413.7 503 416.3 548.8 422.5C594.7 428.7 640.3 438.3 686 439C731.7 439.7 777.3 431.3 823 421.2C868.7 411 914.3 399 937.2 393L960 387L960 541L937.2 541C914.3 541 868.7 541 823 541C777.3 541 731.7 541 686 541C640.3 541 594.7 541 548.8 541C503 541 457 541 411.2 541C365.3 541 319.7 541 274 541C228.3 541 182.7 541 137 541C91.3 541 45.7 541 22.8 541L0 541Z" fill="#0066FF" stroke-linecap="round" stroke-linejoin="miter"></path></svg>